<svg xmlns="http://www.w3.org/2000/svg" width="384" height="384" viewBox="0 0 384 384" fill="none">
<rect width="384" height="384" rx="48" fill="#1B1F25"/>
<path d="M123.308 225.64C119.298 225.64 115.415 224.701 111.66 222.824C107.991 220.947 104.791 218.387 102.06 215.144V225H90.7965V140.008H102.06V170.216C103.938 167.571 106.711 165.224 110.38 163.176C114.135 161.128 118.444 160.104 123.308 160.104C127.66 160.104 131.842 160.957 135.852 162.664C139.863 164.371 143.319 166.717 146.22 169.704C149.207 172.776 151.511 176.317 153.132 180.328C154.839 184.253 155.692 188.435 155.692 192.872C155.692 197.309 154.839 201.533 153.132 205.544C151.511 209.469 149.207 212.968 146.22 216.04C143.319 219.027 139.863 221.373 135.852 223.08C131.842 224.787 127.66 225.64 123.308 225.64ZM123.308 171.752C120.492 171.752 117.762 172.307 115.116 173.416C112.556 174.44 110.338 175.933 108.46 177.896C106.583 179.859 105.09 182.163 103.98 184.808C102.871 187.368 102.316 190.056 102.316 192.872C102.316 198.589 104.364 203.581 108.46 207.848C110.338 209.811 112.556 211.347 115.116 212.456C117.762 213.565 120.492 214.12 123.308 214.12C126.124 214.12 128.812 213.565 131.372 212.456C133.932 211.347 136.151 209.811 138.028 207.848C142.124 203.581 144.172 198.589 144.172 192.872C144.172 190.056 143.618 187.368 142.508 184.808C141.399 182.163 139.906 179.859 138.028 177.896C136.151 175.933 133.932 174.44 131.372 173.416C128.812 172.307 126.124 171.752 123.308 171.752ZM240.771 225V184.936C240.771 181.437 239.534 178.493 237.059 176.104C234.67 173.715 231.726 172.52 228.227 172.52C224.814 172.52 221.827 173.715 219.267 176.104C216.793 178.408 215.555 181.309 215.555 184.808V225H203.907V184.808C203.907 181.224 202.713 178.323 200.323 176.104C197.763 173.715 194.734 172.52 191.235 172.52C187.822 172.52 184.921 173.715 182.531 176.104C179.971 178.664 178.691 181.693 178.691 185.192V225H167.171V162.536H178.691V167.272C180.142 165.48 182.019 163.987 184.323 162.792C186.713 161.597 189.017 161 191.235 161C194.99 161 198.403 161.768 201.475 163.304C204.633 164.755 207.363 166.803 209.667 169.448C211.971 166.803 214.702 164.755 217.859 163.304C221.017 161.768 224.473 161 228.227 161C231.555 161 234.67 161.597 237.571 162.792C240.473 163.987 243.033 165.693 245.251 167.912C247.47 170.131 249.177 172.733 250.371 175.72C251.651 178.621 252.291 181.693 252.291 184.936V225H240.771Z" fill="white"/>
<path d="M269.986 225V206.64H288.346V225H269.986Z" fill="url(#paint0_linear_132_8)"/>
<defs>
<linearGradient id="paint0_linear_132_8" x1="91.3598" y1="95" x2="232.129" y2="243.92" gradientUnits="userSpaceOnUse">
<stop stop-color="#FC466B"/>
<stop offset="1" stop-color="#3F5EFB"/>
</linearGradient>
</defs>
</svg>